<svg class="main-svg" xmlns="http://www.w3.org/2000/svg" xmlns:xlink="http://www.w3.org/1999/xlink" width="1600" height="900" style="" viewBox="0 0 1600 900"><rect x="0" y="0" width="1600" height="900" style="fill: rgb(255, 255, 255); fill-opacity: 1;"/><defs id="defs-905ca6"><g class="clips"><clipPath id="clip905ca6xyplot" class="plotclip"><rect width="1364.8799999999999" height="695"/></clipPath><clipPath id="clip905ca6xy2plot" class="plotclip"><rect width="1364.8799999999999" height="695"/></clipPath><clipPath class="axesclip" id="clip905ca6x"><rect x="84" y="0" width="1364.8799999999999" height="900"/></clipPath><clipPath class="axesclip" id="clip905ca6y"><rect x="0" y="60" width="1600" height="695"/></clipPath><clipPath class="axesclip" id="clip905ca6xy"><rect x="84" y="60" width="1364.8799999999999" height="695"/></clipPath><clipPath class="axesclip" id="clip905ca6y2"><rect x="0" y="60" width="1600" height="695"/></clipPath><clipPath class="axesclip" id="clip905ca6xy2"><rect x="84" y="60" width="1364.8799999999999" height="695"/></clipPath></g><g class="gradients"/><g class="patterns"><pattern id="p905ca6-legend-0f1396" width="14.142135623730951px" height="14.142135623730951px" patternUnits="userSpaceOnUse" patternTransform="scale(0.8)"><rect width="14.142135623730951px" height="14.142135623730951px" fill="rgb(31, 119, 180)" fill-opacity="1"/><path d="M-3.5355339059327378,3.5355339059327378l7.0710678118654755,-7.0710678118654755M0,14.142135623730951L14.142135623730951,0M10.606601717798213,17.67766952966369l7.0710678118654755,-7.0710678118654755" opacity="0.5" stroke="rgb(255, 255, 255)" stroke-width="2px"/></pattern><pattern id="p905ca6-0f1396" width="14.142135623730951px" height="14.142135623730951px" patternUnits="userSpaceOnUse" patternTransform=""><rect width="14.142135623730951px" height="14.142135623730951px" fill="rgb(31, 119, 180)" fill-opacity="1"/><path d="M-3.5355339059327378,3.5355339059327378l7.0710678118654755,-7.0710678118654755M0,14.142135623730951L14.142135623730951,0M10.606601717798213,17.67766952966369l7.0710678118654755,-7.0710678118654755" opacity="0.5" stroke="rgb(255, 255, 255)" stroke-width="2px"/></pattern></g></defs><g class="bglayer"/><g class="layer-below"><g class="imagelayer"/><g class="shapelayer"/></g><g class="cartesianlayer"><g class="subplot xy"><g class="layer-subplot"><g class="shapelayer"/><g class="imagelayer"/></g><g class="minor-gridlayer"><g class="x"/><g class="y"/><g class="y2"/></g><g class="gridlayer"><g class="x"/><g class="y"><path class="ygrid crisp" transform="translate(0,672.26)" d="M84,0h1364.8799999999999" style="stroke: rgb(211, 211, 211); stroke-opacity: 1; stroke-width: 1px;"/><path class="ygrid crisp" transform="translate(0,589.52)" d="M84,0h1364.8799999999999" style="stroke: rgb(211, 211, 211); stroke-opacity: 1; stroke-width: 1px;"/><path class="ygrid crisp" transform="translate(0,506.79)" d="M84,0h1364.8799999999999" style="stroke: rgb(211, 211, 211); stroke-opacity: 1; stroke-width: 1px;"/><path class="ygrid crisp" transform="translate(0,424.05)" d="M84,0h1364.8799999999999" style="stroke: rgb(211, 211, 211); stroke-opacity: 1; stroke-width: 1px;"/><path class="ygrid crisp" transform="translate(0,341.31)" d="M84,0h1364.8799999999999" style="stroke: rgb(211, 211, 211); stroke-opacity: 1; stroke-width: 1px;"/><path class="ygrid crisp" transform="translate(0,258.57)" d="M84,0h1364.8799999999999" style="stroke: rgb(211, 211, 211); stroke-opacity: 1; stroke-width: 1px;"/><path class="ygrid crisp" transform="translate(0,175.82999999999998)" d="M84,0h1364.8799999999999" style="stroke: rgb(211, 211, 211); stroke-opacity: 1; stroke-width: 1px;"/><path class="ygrid crisp" transform="translate(0,93.1)" d="M84,0h1364.8799999999999" style="stroke: rgb(211, 211, 211); stroke-opacity: 1; stroke-width: 1px;"/></g><g class="y2"/></g><g class="zerolinelayer"><path class="yzl zl crisp" transform="translate(0,755)" d="M84,0h1364.8799999999999" style="stroke: rgb(255, 255, 255); stroke-opacity: 1; stroke-width: 2px;"/></g><g class="layer-between"><g class="shapelayer"/><g class="imagelayer"/></g><path class="xlines-below"/><path class="ylines-below"/><g class="overlines-below"><path class="xy2-x"/><path class="xy2-y"/></g><g class="xaxislayer-below"/><g class="yaxislayer-below"/><g class="overaxes-below"><g class="xy2-x"/><g class="xy2-y"/></g><g class="overplot"><g class="xy" transform="translate(84,60)" clip-path="url(#clip905ca6xyplot)"><g class="barlayer mlayer"><g class="trace bars" style="opacity: 1;"><g class="points"><g class="point"><path d="M5.46,695V304.48H49.14V695Z" class="pattern_filled" style="vector-effect: none; opacity: 1; stroke-width: 0.5px; fill: url('#p905ca6-0f1396'); stroke: rgb(229, 236, 246); stroke-opacity: 1;"/></g><g class="point"><path d="M60.05,695V77.77H103.73V695Z" class="pattern_filled" style="vector-effect: none; opacity: 1; stroke-width: 0.5px; fill: url('#p905ca6-0f1396'); stroke: rgb(229, 236, 246); stroke-opacity: 1;"/></g><g class="point"><path d="M114.65,695V142.31H158.33V695Z" class="pattern_filled" style="vector-effect: none; opacity: 1; stroke-width: 0.5px; fill: url('#p905ca6-0f1396'); stroke: rgb(229, 236, 246); stroke-opacity: 1;"/></g><g class="point"><path d="M169.25,695V536.14H212.92V695Z" class="pattern_filled" style="vector-effect: none; opacity: 1; stroke-width: 0.5px; fill: url('#p905ca6-0f1396'); stroke: rgb(229, 236, 246); stroke-opacity: 1;"/></g><g class="point"><path d="M223.84,695V584.13H267.52V695Z" class="pattern_filled" style="vector-effect: none; opacity: 1; stroke-width: 0.5px; fill: url('#p905ca6-0f1396'); stroke: rgb(229, 236, 246); stroke-opacity: 1;"/></g><g class="point"><path d="M278.44,695V653.63H322.11V695Z" class="pattern_filled" style="vector-effect: none; opacity: 1; stroke-width: 0.5px; fill: url('#p905ca6-0f1396'); stroke: rgb(229, 236, 246); stroke-opacity: 1;"/></g><g class="point"><path d="M333.03,695V647.01H376.71V695Z" class="pattern_filled" style="vector-effect: none; opacity: 1; stroke-width: 0.5px; fill: url('#p905ca6-0f1396'); stroke: rgb(229, 236, 246); stroke-opacity: 1;"/></g><g class="point"><path d="M387.63,695V638.74H431.3V695Z" class="pattern_filled" style="vector-effect: none; opacity: 1; stroke-width: 0.5px; fill: url('#p905ca6-0f1396'); stroke: rgb(229, 236, 246); stroke-opacity: 1;"/></g><g class="point"><path d="M442.22,695V653.63H485.9V695Z" class="pattern_filled" style="vector-effect: none; opacity: 1; stroke-width: 0.5px; fill: url('#p905ca6-0f1396'); stroke: rgb(229, 236, 246); stroke-opacity: 1;"/></g><g class="point"><path d="M496.82,695V651.98H540.49V695Z" class="pattern_filled" style="vector-effect: none; opacity: 1; stroke-width: 0.5px; fill: url('#p905ca6-0f1396'); stroke: rgb(229, 236, 246); stroke-opacity: 1;"/></g><g class="point"><path d="M551.41,695V676.8H595.09V695Z" class="pattern_filled" style="vector-effect: none; opacity: 1; stroke-width: 0.5px; fill: url('#p905ca6-0f1396'); stroke: rgb(229, 236, 246); stroke-opacity: 1;"/></g><g class="point"><path d="M606.01,695V676.8H649.68V695Z" class="pattern_filled" style="vector-effect: none; opacity: 1; stroke-width: 0.5px; fill: url('#p905ca6-0f1396'); stroke: rgb(229, 236, 246); stroke-opacity: 1;"/></g><g class="point"><path d="M660.6,695V676.8H704.28V695Z" class="pattern_filled" style="vector-effect: none; opacity: 1; stroke-width: 0.5px; fill: url('#p905ca6-0f1396'); stroke: rgb(229, 236, 246); stroke-opacity: 1;"/></g><g class="point"><path d="M715.2,695V683.42H758.87V695Z" class="pattern_filled" style="vector-effect: none; opacity: 1; stroke-width: 0.5px; fill: url('#p905ca6-0f1396'); stroke: rgb(229, 236, 246); stroke-opacity: 1;"/></g><g class="point"><path d="M769.79,695V686.73H813.47V695Z" class="pattern_filled" style="vector-effect: none; opacity: 1; stroke-width: 0.5px; fill: url('#p905ca6-0f1396'); stroke: rgb(229, 236, 246); stroke-opacity: 1;"/></g><g class="point"><path d="M824.39,695V686.73H868.06V695Z" class="pattern_filled" style="vector-effect: none; opacity: 1; stroke-width: 0.5px; fill: url('#p905ca6-0f1396'); stroke: rgb(229, 236, 246); stroke-opacity: 1;"/></g><g class="point"><path d="M878.98,695V685.07H922.66V695Z" class="pattern_filled" style="vector-effect: none; opacity: 1; stroke-width: 0.5px; fill: url('#p905ca6-0f1396'); stroke: rgb(229, 236, 246); stroke-opacity: 1;"/></g><g class="point"><path d="M933.58,695V693.35H977.25V695Z" class="pattern_filled" style="vector-effect: none; opacity: 1; stroke-width: 0.5px; fill: url('#p905ca6-0f1396'); stroke: rgb(229, 236, 246); stroke-opacity: 1;"/></g><g class="point"><path d="M988.17,695V685.07H1031.85V695Z" class="pattern_filled" style="vector-effect: none; opacity: 1; stroke-width: 0.5px; fill: url('#p905ca6-0f1396'); stroke: rgb(229, 236, 246); stroke-opacity: 1;"/></g><g class="point"><path d="M1042.77,695V690.04H1086.44V695Z" class="pattern_filled" style="vector-effect: none; opacity: 1; stroke-width: 0.5px; fill: url('#p905ca6-0f1396'); stroke: rgb(229, 236, 246); stroke-opacity: 1;"/></g><g class="point"><path d="M1097.36,695V688.38H1141.04V695Z" class="pattern_filled" style="vector-effect: none; opacity: 1; stroke-width: 0.5px; fill: url('#p905ca6-0f1396'); stroke: rgb(229, 236, 246); stroke-opacity: 1;"/></g><g class="point"><path d="M1151.96,695V675.14H1195.63V695Z" class="pattern_filled" style="vector-effect: none; opacity: 1; stroke-width: 0.5px; fill: url('#p905ca6-0f1396'); stroke: rgb(229, 236, 246); stroke-opacity: 1;"/></g><g class="point"><path d="M1206.55,695V688.38H1250.23V695Z" class="pattern_filled" style="vector-effect: none; opacity: 1; stroke-width: 0.5px; fill: url('#p905ca6-0f1396'); stroke: rgb(229, 236, 246); stroke-opacity: 1;"/></g><g class="point"><path d="M1261.15,695V688.38H1304.83V695Z" class="pattern_filled" style="vector-effect: none; opacity: 1; stroke-width: 0.5px; fill: url('#p905ca6-0f1396'); stroke: rgb(229, 236, 246); stroke-opacity: 1;"/></g><g class="point"><path d="M1315.74,695V647.01H1359.42V695Z" class="pattern_filled" style="vector-effect: none; opacity: 1; stroke-width: 0.5px; fill: url('#p905ca6-0f1396'); stroke: rgb(229, 236, 246); stroke-opacity: 1;"/></g></g></g></g></g><g class="xy2" transform="translate(84,60)" clip-path="url(#clip905ca6xy2plot)"><g class="scatterlayer mlayer"><g class="trace scatter trace5dd083" style="stroke-miterlimit: 2; opacity: 1;"><g class="fills"/><g class="errorbars"/><g class="lines"><path class="js-line" d="M27.3,580.48L81.89,399.47L136.49,237.39L191.08,190.81L245.68,158.29L300.27,146.16L354.87,132.09L409.46,115.59L464.06,103.46L518.65,90.84L573.25,85.5L682.44,74.83L737.04,71.43L900.82,63.67L955.42,63.18L1010.01,60.27L1064.61,58.81L1119.2,56.87L1173.8,51.05L1282.99,47.17L1337.58,33.1" style="vector-effect: none; fill: none; stroke: rgb(255, 0, 0); stroke-opacity: 1; stroke-width: 2px; opacity: 1;"/></g><g class="points"><path class="point" transform="translate(27.3,580.48)" d="M5,0A5,5 0 1,1 0,-5A5,5 0 0,1 5,0Z" style="opacity: 1; stroke-width: 0px; fill: rgb(255, 0, 0); fill-opacity: 1;"/><path class="point" transform="translate(81.89,399.47)" d="M5,0A5,5 0 1,1 0,-5A5,5 0 0,1 5,0Z" style="opacity: 1; stroke-width: 0px; fill: rgb(255, 0, 0); fill-opacity: 1;"/><path class="point" transform="translate(136.49,237.39)" d="M5,0A5,5 0 1,1 0,-5A5,5 0 0,1 5,0Z" style="opacity: 1; stroke-width: 0px; fill: rgb(255, 0, 0); fill-opacity: 1;"/><path class="point" transform="translate(191.08,190.81)" d="M5,0A5,5 0 1,1 0,-5A5,5 0 0,1 5,0Z" style="opacity: 1; stroke-width: 0px; fill: rgb(255, 0, 0); fill-opacity: 1;"/><path class="point" transform="translate(245.68,158.29)" d="M5,0A5,5 0 1,1 0,-5A5,5 0 0,1 5,0Z" style="opacity: 1; stroke-width: 0px; fill: rgb(255, 0, 0); fill-opacity: 1;"/><path class="point" transform="translate(300.27,146.16)" d="M5,0A5,5 0 1,1 0,-5A5,5 0 0,1 5,0Z" style="opacity: 1; stroke-width: 0px; fill: rgb(255, 0, 0); fill-opacity: 1;"/><path class="point" transform="translate(354.87,132.09)" d="M5,0A5,5 0 1,1 0,-5A5,5 0 0,1 5,0Z" style="opacity: 1; stroke-width: 0px; fill: rgb(255, 0, 0); fill-opacity: 1;"/><path class="point" transform="translate(409.46,115.59)" d="M5,0A5,5 0 1,1 0,-5A5,5 0 0,1 5,0Z" style="opacity: 1; stroke-width: 0px; fill: rgb(255, 0, 0); fill-opacity: 1;"/><path class="point" transform="translate(464.06,103.46)" d="M5,0A5,5 0 1,1 0,-5A5,5 0 0,1 5,0Z" style="opacity: 1; stroke-width: 0px; fill: rgb(255, 0, 0); fill-opacity: 1;"/><path class="point" transform="translate(518.65,90.84)" d="M5,0A5,5 0 1,1 0,-5A5,5 0 0,1 5,0Z" style="opacity: 1; stroke-width: 0px; fill: rgb(255, 0, 0); fill-opacity: 1;"/><path class="point" transform="translate(573.25,85.5)" d="M5,0A5,5 0 1,1 0,-5A5,5 0 0,1 5,0Z" style="opacity: 1; stroke-width: 0px; fill: rgb(255, 0, 0); fill-opacity: 1;"/><path class="point" transform="translate(627.84,80.17)" d="M5,0A5,5 0 1,1 0,-5A5,5 0 0,1 5,0Z" style="opacity: 1; stroke-width: 0px; fill: rgb(255, 0, 0); fill-opacity: 1;"/><path class="point" transform="translate(682.44,74.83)" d="M5,0A5,5 0 1,1 0,-5A5,5 0 0,1 5,0Z" style="opacity: 1; stroke-width: 0px; fill: rgb(255, 0, 0); fill-opacity: 1;"/><path class="point" transform="translate(737.04,71.43)" d="M5,0A5,5 0 1,1 0,-5A5,5 0 0,1 5,0Z" style="opacity: 1; stroke-width: 0px; fill: rgb(255, 0, 0); fill-opacity: 1;"/><path class="point" transform="translate(791.63,69.01)" d="M5,0A5,5 0 1,1 0,-5A5,5 0 0,1 5,0Z" style="opacity: 1; stroke-width: 0px; fill: rgb(255, 0, 0); fill-opacity: 1;"/><path class="point" transform="translate(846.23,66.58)" d="M5,0A5,5 0 1,1 0,-5A5,5 0 0,1 5,0Z" style="opacity: 1; stroke-width: 0px; fill: rgb(255, 0, 0); fill-opacity: 1;"/><path class="point" transform="translate(900.82,63.67)" d="M5,0A5,5 0 1,1 0,-5A5,5 0 0,1 5,0Z" style="opacity: 1; stroke-width: 0px; fill: rgb(255, 0, 0); fill-opacity: 1;"/><path class="point" transform="translate(955.42,63.18)" d="M5,0A5,5 0 1,1 0,-5A5,5 0 0,1 5,0Z" style="opacity: 1; stroke-width: 0px; fill: rgb(255, 0, 0); fill-opacity: 1;"/><path class="point" transform="translate(1010.01,60.27)" d="M5,0A5,5 0 1,1 0,-5A5,5 0 0,1 5,0Z" style="opacity: 1; stroke-width: 0px; fill: rgb(255, 0, 0); fill-opacity: 1;"/><path class="point" transform="translate(1064.61,58.81)" d="M5,0A5,5 0 1,1 0,-5A5,5 0 0,1 5,0Z" style="opacity: 1; stroke-width: 0px; fill: rgb(255, 0, 0); fill-opacity: 1;"/><path class="point" transform="translate(1119.2,56.87)" d="M5,0A5,5 0 1,1 0,-5A5,5 0 0,1 5,0Z" style="opacity: 1; stroke-width: 0px; fill: rgb(255, 0, 0); fill-opacity: 1;"/><path class="point" transform="translate(1173.8,51.05)" d="M5,0A5,5 0 1,1 0,-5A5,5 0 0,1 5,0Z" style="opacity: 1; stroke-width: 0px; fill: rgb(255, 0, 0); fill-opacity: 1;"/><path class="point" transform="translate(1228.39,49.11)" d="M5,0A5,5 0 1,1 0,-5A5,5 0 0,1 5,0Z" style="opacity: 1; stroke-width: 0px; fill: rgb(255, 0, 0); fill-opacity: 1;"/><path class="point" transform="translate(1282.99,47.17)" d="M5,0A5,5 0 1,1 0,-5A5,5 0 0,1 5,0Z" style="opacity: 1; stroke-width: 0px; fill: rgb(255, 0, 0); fill-opacity: 1;"/><path class="point" transform="translate(1337.58,33.1)" d="M5,0A5,5 0 1,1 0,-5A5,5 0 0,1 5,0Z" style="opacity: 1; stroke-width: 0px; fill: rgb(255, 0, 0); fill-opacity: 1;"/></g><g class="text"/></g></g></g></g><path class="xlines-above crisp" d="M81,756.5H1448.8799999999999" style="fill: none; stroke-width: 3px; stroke: rgb(0, 0, 0); stroke-opacity: 1;"/><path class="ylines-above crisp" d="M82.5,60V755" style="fill: none; stroke-width: 3px; stroke: rgb(0, 0, 0); stroke-opacity: 1;"/><g class="overlines-above"><path class="xy2-x crisp" d="M0,0" style="fill: none;"/><path class="xy2-y crisp" d="" style="fill: none; stroke-width: 1px; stroke: rgb(0, 0, 0); stroke-opacity: 0;"/></g><g class="xaxislayer-above"><path class="xtick ticks crisp" d="M0,758v5" transform="translate(111.3,0)" style="stroke: rgb(68, 68, 68); stroke-opacity: 1; stroke-width: 1px;"/><path class="xtick ticks crisp" d="M0,758v5" transform="translate(165.89,0)" style="stroke: rgb(68, 68, 68); stroke-opacity: 1; stroke-width: 1px;"/><path class="xtick ticks crisp" d="M0,758v5" transform="translate(220.49,0)" style="stroke: rgb(68, 68, 68); stroke-opacity: 1; stroke-width: 1px;"/><path class="xtick ticks crisp" d="M0,758v5" transform="translate(275.08000000000004,0)" style="stroke: rgb(68, 68, 68); stroke-opacity: 1; stroke-width: 1px;"/><path class="xtick ticks crisp" d="M0,758v5" transform="translate(329.68,0)" style="stroke: rgb(68, 68, 68); stroke-opacity: 1; stroke-width: 1px;"/><path class="xtick ticks crisp" d="M0,758v5" transform="translate(384.27,0)" style="stroke: rgb(68, 68, 68); stroke-opacity: 1; stroke-width: 1px;"/><path class="xtick ticks crisp" d="M0,758v5" transform="translate(438.87,0)" style="stroke: rgb(68, 68, 68); stroke-opacity: 1; stroke-width: 1px;"/><path class="xtick ticks crisp" d="M0,758v5" transform="translate(493.46,0)" style="stroke: rgb(68, 68, 68); stroke-opacity: 1; stroke-width: 1px;"/><path class="xtick ticks crisp" d="M0,758v5" transform="translate(548.06,0)" style="stroke: rgb(68, 68, 68); stroke-opacity: 1; stroke-width: 1px;"/><path class="xtick ticks crisp" d="M0,758v5" transform="translate(602.65,0)" style="stroke: rgb(68, 68, 68); stroke-opacity: 1; stroke-width: 1px;"/><path class="xtick ticks crisp" d="M0,758v5" transform="translate(657.25,0)" style="stroke: rgb(68, 68, 68); stroke-opacity: 1; stroke-width: 1px;"/><path class="xtick ticks crisp" d="M0,758v5" transform="translate(711.84,0)" style="stroke: rgb(68, 68, 68); stroke-opacity: 1; stroke-width: 1px;"/><path class="xtick ticks crisp" d="M0,758v5" transform="translate(766.44,0)" style="stroke: rgb(68, 68, 68); stroke-opacity: 1; stroke-width: 1px;"/><path class="xtick ticks crisp" d="M0,758v5" transform="translate(821.04,0)" style="stroke: rgb(68, 68, 68); stroke-opacity: 1; stroke-width: 1px;"/><path class="xtick ticks crisp" d="M0,758v5" transform="translate(875.63,0)" style="stroke: rgb(68, 68, 68); stroke-opacity: 1; stroke-width: 1px;"/><path class="xtick ticks crisp" d="M0,758v5" transform="translate(930.23,0)" style="stroke: rgb(68, 68, 68); stroke-opacity: 1; stroke-width: 1px;"/><path class="xtick ticks crisp" d="M0,758v5" transform="translate(984.82,0)" style="stroke: rgb(68, 68, 68); stroke-opacity: 1; stroke-width: 1px;"/><path class="xtick ticks crisp" d="M0,758v5" transform="translate(1039.42,0)" style="stroke: rgb(68, 68, 68); stroke-opacity: 1; stroke-width: 1px;"/><path class="xtick ticks crisp" d="M0,758v5" transform="translate(1094.01,0)" style="stroke: rgb(68, 68, 68); stroke-opacity: 1; stroke-width: 1px;"/><path class="xtick ticks crisp" d="M0,758v5" transform="translate(1148.61,0)" style="stroke: rgb(68, 68, 68); stroke-opacity: 1; stroke-width: 1px;"/><path class="xtick ticks crisp" d="M0,758v5" transform="translate(1203.2,0)" style="stroke: rgb(68, 68, 68); stroke-opacity: 1; stroke-width: 1px;"/><path class="xtick ticks crisp" d="M0,758v5" transform="translate(1257.8,0)" style="stroke: rgb(68, 68, 68); stroke-opacity: 1; stroke-width: 1px;"/><path class="xtick ticks crisp" d="M0,758v5" transform="translate(1312.39,0)" style="stroke: rgb(68, 68, 68); stroke-opacity: 1; stroke-width: 1px;"/><path class="xtick ticks crisp" d="M0,758v5" transform="translate(1366.99,0)" style="stroke: rgb(68, 68, 68); stroke-opacity: 1; stroke-width: 1px;"/><path class="xtick ticks crisp" d="M0,758v5" transform="translate(1421.58,0)" style="stroke: rgb(68, 68, 68); stroke-opacity: 1; stroke-width: 1px;"/><g class="xtick"><text text-anchor="start" x="0" y="787" transform="translate(111.3,0) rotate(45,0,777)" style="font-family: 'Open Sans', verdana, arial, sans-serif; font-size: 20px; fill: rgb(42, 63, 95); fill-opacity: 1; white-space: pre; opacity: 1;">0 - 25</text></g><g class="xtick"><text text-anchor="start" x="0" y="787" transform="translate(165.89,0) rotate(45,0,777)" style="font-family: 'Open Sans', verdana, arial, sans-serif; font-size: 20px; fill: rgb(42, 63, 95); fill-opacity: 1; white-space: pre; opacity: 1;">25 - 50</text></g><g class="xtick"><text text-anchor="start" x="0" y="787" transform="translate(220.49,0) rotate(45,0,777)" style="font-family: 'Open Sans', verdana, arial, sans-serif; font-size: 20px; fill: rgb(42, 63, 95); fill-opacity: 1; white-space: pre; opacity: 1;">50 - 75</text></g><g class="xtick"><text text-anchor="start" x="0" y="787" transform="translate(275.08000000000004,0) rotate(45,0,777)" style="font-family: 'Open Sans', verdana, arial, sans-serif; font-size: 20px; fill: rgb(42, 63, 95); fill-opacity: 1; white-space: pre; opacity: 1;">75 - 100</text></g><g class="xtick"><text text-anchor="start" x="0" y="787" transform="translate(329.68,0) rotate(45,0,777)" style="font-family: 'Open Sans', verdana, arial, sans-serif; font-size: 20px; fill: rgb(42, 63, 95); fill-opacity: 1; white-space: pre; opacity: 1;">100 - 125</text></g><g class="xtick"><text text-anchor="start" x="0" y="787" transform="translate(384.27,0) rotate(45,0,777)" style="font-family: 'Open Sans', verdana, arial, sans-serif; font-size: 20px; fill: rgb(42, 63, 95); fill-opacity: 1; white-space: pre; opacity: 1;">125 - 150</text></g><g class="xtick"><text text-anchor="start" x="0" y="787" transform="translate(438.87,0) rotate(45,0,777)" style="font-family: 'Open Sans', verdana, arial, sans-serif; font-size: 20px; fill: rgb(42, 63, 95); fill-opacity: 1; white-space: pre; opacity: 1;">150 - 175</text></g><g class="xtick"><text text-anchor="start" x="0" y="787" transform="translate(493.46,0) rotate(45,0,777)" style="font-family: 'Open Sans', verdana, arial, sans-serif; font-size: 20px; fill: rgb(42, 63, 95); fill-opacity: 1; white-space: pre; opacity: 1;">175 - 200</text></g><g class="xtick"><text text-anchor="start" x="0" y="787" transform="translate(548.06,0) rotate(45,0,777)" style="font-family: 'Open Sans', verdana, arial, sans-serif; font-size: 20px; fill: rgb(42, 63, 95); fill-opacity: 1; white-space: pre; opacity: 1;">200 - 225</text></g><g class="xtick"><text text-anchor="start" x="0" y="787" transform="translate(602.65,0) rotate(45,0,777)" style="font-family: 'Open Sans', verdana, arial, sans-serif; font-size: 20px; fill: rgb(42, 63, 95); fill-opacity: 1; white-space: pre; opacity: 1;">225 - 250</text></g><g class="xtick"><text text-anchor="start" x="0" y="787" transform="translate(657.25,0) rotate(45,0,777)" style="font-family: 'Open Sans', verdana, arial, sans-serif; font-size: 20px; fill: rgb(42, 63, 95); fill-opacity: 1; white-space: pre; opacity: 1;">250 - 275</text></g><g class="xtick"><text text-anchor="start" x="0" y="787" transform="translate(711.84,0) rotate(45,0,777)" style="font-family: 'Open Sans', verdana, arial, sans-serif; font-size: 20px; fill: rgb(42, 63, 95); fill-opacity: 1; white-space: pre; opacity: 1;">275 - 300</text></g><g class="xtick"><text text-anchor="start" x="0" y="787" transform="translate(766.44,0) rotate(45,0,777)" style="font-family: 'Open Sans', verdana, arial, sans-serif; font-size: 20px; fill: rgb(42, 63, 95); fill-opacity: 1; white-space: pre; opacity: 1;">300 - 325</text></g><g class="xtick"><text text-anchor="start" x="0" y="787" transform="translate(821.04,0) rotate(45,0,777)" style="font-family: 'Open Sans', verdana, arial, sans-serif; font-size: 20px; fill: rgb(42, 63, 95); fill-opacity: 1; white-space: pre; opacity: 1;">325 - 350</text></g><g class="xtick"><text text-anchor="start" x="0" y="787" transform="translate(875.63,0) rotate(45,0,777)" style="font-family: 'Open Sans', verdana, arial, sans-serif; font-size: 20px; fill: rgb(42, 63, 95); fill-opacity: 1; white-space: pre; opacity: 1;">350 - 375</text></g><g class="xtick"><text text-anchor="start" x="0" y="787" transform="translate(930.23,0) rotate(45,0,777)" style="font-family: 'Open Sans', verdana, arial, sans-serif; font-size: 20px; fill: rgb(42, 63, 95); fill-opacity: 1; white-space: pre; opacity: 1;">375 - 400</text></g><g class="xtick"><text text-anchor="start" x="0" y="787" transform="translate(984.82,0) rotate(45,0,777)" style="font-family: 'Open Sans', verdana, arial, sans-serif; font-size: 20px; fill: rgb(42, 63, 95); fill-opacity: 1; white-space: pre; opacity: 1;">400 - 425</text></g><g class="xtick"><text text-anchor="start" x="0" y="787" transform="translate(1039.42,0) rotate(45,0,777)" style="font-family: 'Open Sans', verdana, arial, sans-serif; font-size: 20px; fill: rgb(42, 63, 95); fill-opacity: 1; white-space: pre; opacity: 1;">425 - 450</text></g><g class="xtick"><text text-anchor="start" x="0" y="787" transform="translate(1094.01,0) rotate(45,0,777)" style="font-family: 'Open Sans', verdana, arial, sans-serif; font-size: 20px; fill: rgb(42, 63, 95); fill-opacity: 1; white-space: pre; opacity: 1;">450 - 475</text></g><g class="xtick"><text text-anchor="start" x="0" y="787" transform="translate(1148.61,0) rotate(45,0,777)" style="font-family: 'Open Sans', verdana, arial, sans-serif; font-size: 20px; fill: rgb(42, 63, 95); fill-opacity: 1; white-space: pre; opacity: 1;">475 - 500</text></g><g class="xtick"><text text-anchor="start" x="0" y="787" transform="translate(1203.2,0) rotate(45,0,777)" style="font-family: 'Open Sans', verdana, arial, sans-serif; font-size: 20px; fill: rgb(42, 63, 95); fill-opacity: 1; white-space: pre; opacity: 1;">500 - 525</text></g><g class="xtick"><text text-anchor="start" x="0" y="787" transform="translate(1257.8,0) rotate(45,0,777)" style="font-family: 'Open Sans', verdana, arial, sans-serif; font-size: 20px; fill: rgb(42, 63, 95); fill-opacity: 1; white-space: pre; opacity: 1;">525 - 550</text></g><g class="xtick"><text text-anchor="start" x="0" y="787" transform="translate(1312.39,0) rotate(45,0,777)" style="font-family: 'Open Sans', verdana, arial, sans-serif; font-size: 20px; fill: rgb(42, 63, 95); fill-opacity: 1; white-space: pre; opacity: 1;">550 - 575</text></g><g class="xtick"><text text-anchor="start" x="0" y="787" transform="translate(1366.99,0) rotate(45,0,777)" style="font-family: 'Open Sans', verdana, arial, sans-serif; font-size: 20px; fill: rgb(42, 63, 95); fill-opacity: 1; white-space: pre; opacity: 1;">575 - 600</text></g><g class="xtick"><text text-anchor="start" x="0" y="787" transform="translate(1421.58,0) rotate(45,0,777)" style="font-family: 'Open Sans', verdana, arial, sans-serif; font-size: 20px; fill: rgb(42, 63, 95); fill-opacity: 1; white-space: pre; opacity: 1;">600 - 1005</text></g></g><g class="yaxislayer-above"><path class="ytick ticks crisp" d="M81,0h-5" transform="translate(0,755)" style="stroke: rgb(68, 68, 68); stroke-opacity: 1; stroke-width: 1px;"/><path class="ytick ticks crisp" d="M81,0h-5" transform="translate(0,672.26)" style="stroke: rgb(68, 68, 68); stroke-opacity: 1; stroke-width: 1px;"/><path class="ytick ticks crisp" d="M81,0h-5" transform="translate(0,589.52)" style="stroke: rgb(68, 68, 68); stroke-opacity: 1; stroke-width: 1px;"/><path class="ytick ticks crisp" d="M81,0h-5" transform="translate(0,506.79)" style="stroke: rgb(68, 68, 68); stroke-opacity: 1; stroke-width: 1px;"/><path class="ytick ticks crisp" d="M81,0h-5" transform="translate(0,424.05)" style="stroke: rgb(68, 68, 68); stroke-opacity: 1; stroke-width: 1px;"/><path class="ytick ticks crisp" d="M81,0h-5" transform="translate(0,341.31)" style="stroke: rgb(68, 68, 68); stroke-opacity: 1; stroke-width: 1px;"/><path class="ytick ticks crisp" d="M81,0h-5" transform="translate(0,258.57)" style="stroke: rgb(68, 68, 68); stroke-opacity: 1; stroke-width: 1px;"/><path class="ytick ticks crisp" d="M81,0h-5" transform="translate(0,175.82999999999998)" style="stroke: rgb(68, 68, 68); stroke-opacity: 1; stroke-width: 1px;"/><path class="ytick ticks crisp" d="M81,0h-5" transform="translate(0,93.1)" style="stroke: rgb(68, 68, 68); stroke-opacity: 1; stroke-width: 1px;"/><g class="ytick"><text text-anchor="end" x="72" y="7" transform="translate(0,755)" style="font-family: 'Open Sans', verdana, arial, sans-serif; font-size: 20px; fill: rgb(42, 63, 95); fill-opacity: 1; white-space: pre; opacity: 1;">0</text></g><g class="ytick"><text text-anchor="end" x="72" y="7" style="font-family: 'Open Sans', verdana, arial, sans-serif; font-size: 20px; fill: rgb(42, 63, 95); fill-opacity: 1; white-space: pre; opacity: 1;" transform="translate(0,672.26)">50</text></g><g class="ytick"><text text-anchor="end" x="72" y="7" style="font-family: 'Open Sans', verdana, arial, sans-serif; font-size: 20px; fill: rgb(42, 63, 95); fill-opacity: 1; white-space: pre; opacity: 1;" transform="translate(0,589.52)">100</text></g><g class="ytick"><text text-anchor="end" x="72" y="7" style="font-family: 'Open Sans', verdana, arial, sans-serif; font-size: 20px; fill: rgb(42, 63, 95); fill-opacity: 1; white-space: pre; opacity: 1;" transform="translate(0,506.79)">150</text></g><g class="ytick"><text text-anchor="end" x="72" y="7" style="font-family: 'Open Sans', verdana, arial, sans-serif; font-size: 20px; fill: rgb(42, 63, 95); fill-opacity: 1; white-space: pre; opacity: 1;" transform="translate(0,424.05)">200</text></g><g class="ytick"><text text-anchor="end" x="72" y="7" style="font-family: 'Open Sans', verdana, arial, sans-serif; font-size: 20px; fill: rgb(42, 63, 95); fill-opacity: 1; white-space: pre; opacity: 1;" transform="translate(0,341.31)">250</text></g><g class="ytick"><text text-anchor="end" x="72" y="7" style="font-family: 'Open Sans', verdana, arial, sans-serif; font-size: 20px; fill: rgb(42, 63, 95); fill-opacity: 1; white-space: pre; opacity: 1;" transform="translate(0,258.57)">300</text></g><g class="ytick"><text text-anchor="end" x="72" y="7" style="font-family: 'Open Sans', verdana, arial, sans-serif; font-size: 20px; fill: rgb(42, 63, 95); fill-opacity: 1; white-space: pre; opacity: 1;" transform="translate(0,175.82999999999998)">350</text></g><g class="ytick"><text text-anchor="end" x="72" y="7" style="font-family: 'Open Sans', verdana, arial, sans-serif; font-size: 20px; fill: rgb(42, 63, 95); fill-opacity: 1; white-space: pre; opacity: 1;" transform="translate(0,93.1)">400</text></g></g><g class="overaxes-above"><g class="xy2-x"/><g class="xy2-y"><path class="y2tick ticks crisp" d="M1449.8799999999999,0h5" transform="translate(0,755)" style="stroke: rgb(68, 68, 68); stroke-opacity: 1; stroke-width: 1px;"/><path class="y2tick ticks crisp" d="M1449.8799999999999,0h5" transform="translate(0,589.52)" style="stroke: rgb(68, 68, 68); stroke-opacity: 1; stroke-width: 1px;"/><path class="y2tick ticks crisp" d="M1449.8799999999999,0h5" transform="translate(0,424.05)" style="stroke: rgb(68, 68, 68); stroke-opacity: 1; stroke-width: 1px;"/><path class="y2tick ticks crisp" d="M1449.8799999999999,0h5" transform="translate(0,258.57)" style="stroke: rgb(68, 68, 68); stroke-opacity: 1; stroke-width: 1px;"/><path class="y2tick ticks crisp" d="M1449.8799999999999,0h5" transform="translate(0,93.1)" style="stroke: rgb(68, 68, 68); stroke-opacity: 1; stroke-width: 1px;"/><g class="y2tick"><text text-anchor="start" x="1458.8799999999999" y="7" transform="translate(0,755)" style="font-family: 'Open Sans', verdana, arial, sans-serif; font-size: 20px; fill: rgb(42, 63, 95); fill-opacity: 1; white-space: pre; opacity: 1;">0</text></g><g class="y2tick"><text text-anchor="start" x="1458.8799999999999" y="7" style="font-family: 'Open Sans', verdana, arial, sans-serif; font-size: 20px; fill: rgb(42, 63, 95); fill-opacity: 1; white-space: pre; opacity: 1;" transform="translate(0,589.52)">25</text></g><g class="y2tick"><text text-anchor="start" x="1458.8799999999999" y="7" style="font-family: 'Open Sans', verdana, arial, sans-serif; font-size: 20px; fill: rgb(42, 63, 95); fill-opacity: 1; white-space: pre; opacity: 1;" transform="translate(0,424.05)">50</text></g><g class="y2tick"><text text-anchor="start" x="1458.8799999999999" y="7" style="font-family: 'Open Sans', verdana, arial, sans-serif; font-size: 20px; fill: rgb(42, 63, 95); fill-opacity: 1; white-space: pre; opacity: 1;" transform="translate(0,258.57)">75</text></g><g class="y2tick"><text text-anchor="start" x="1458.8799999999999" y="7" style="font-family: 'Open Sans', verdana, arial, sans-serif; font-size: 20px; fill: rgb(42, 63, 95); fill-opacity: 1; white-space: pre; opacity: 1;" transform="translate(0,93.1)">100</text></g></g></g></g><g class="subplot xy2"/></g><g class="polarlayer"/><g class="smithlayer"/><g class="ternarylayer"/><g class="geolayer"/><g class="funnelarealayer"/><g class="pielayer"/><g class="iciclelayer"/><g class="treemaplayer"/><g class="sunburstlayer"/><g class="glimages"/><defs id="topdefs-905ca6"><g class="clips"/><clipPath id="legend905ca6"><rect width="311" height="94" x="0" y="0"/></clipPath></defs><g class="layer-above"><g class="imagelayer"/><g class="shapelayer"/></g><g class="infolayer"><g class="legend" pointer-events="all" transform="translate(1108.8400000000001,143.39999999999998)"><rect class="bg" shape-rendering="crispEdges" width="311" height="94" x="0" y="0" style="stroke: rgb(68, 68, 68); stroke-opacity: 1; fill: rgb(255, 255, 255); fill-opacity: 1; stroke-width: 0px;"/><g class="scrollbox" transform="" clip-path="url(#legend905ca6)"><g class="groups"><g class="traces" transform="translate(0,32.5)" style="opacity: 1;"><text class="legendtext" text-anchor="start" x="40" y="-5.2" style="font-family: 'Open Sans', verdana, arial, sans-serif; font-size: 20px; fill: rgb(42, 63, 95); fill-opacity: 1; white-space: pre;"><tspan class="line" dy="0em" x="40" y="-5.2">Cumulative percentage of </tspan><tspan class="line" dy="1.3em" x="40" y="-5.2">flight below flight distance</tspan></text><g class="layers" style="opacity: 1;"><g class="legendfill"/><g class="legendlines"><path class="js-line" d="M5,0h30" style="fill: none; stroke: rgb(255, 0, 0); stroke-opacity: 1; stroke-width: 2px;"/></g><g class="legendsymbols"><g class="legendpoints"><path class="scatterpts" transform="translate(20,0)" d="M5,0A5,5 0 1,1 0,-5A5,5 0 0,1 5,0Z" style="opacity: 1; stroke-width: 0px; fill: rgb(255, 0, 0); fill-opacity: 1;"/></g></g></g><rect class="legendtoggle" x="0" y="-27.5" width="305.609375" height="55" style="fill: rgb(0, 0, 0); fill-opacity: 0;"/></g><g class="traces" transform="translate(0,74.5)" style="opacity: 1;"><text class="legendtext" text-anchor="start" x="40" y="7.8" style="font-family: 'Open Sans', verdana, arial, sans-serif; font-size: 20px; fill: rgb(42, 63, 95); fill-opacity: 1; white-space: pre;">DAHER Kodiak Series</text><g class="layers" style="opacity: 1;"><g class="legendfill"/><g class="legendlines"/><g class="legendsymbols"><g class="legendpoints"><path class="legendundefined pattern_filled" d="M6,6H-6V-6H6Z" transform="translate(20,0)" style="stroke-width: 0.5px; fill: url('#p905ca6-legend-0f1396'); stroke: rgb(229, 236, 246); stroke-opacity: 1;"/></g></g></g><rect class="legendtoggle" x="0" y="-14.5" width="305.609375" height="29" style="fill: rgb(0, 0, 0); fill-opacity: 0;"/></g></g></g><rect class="scrollbar" rx="20" ry="3" width="0" height="0" x="0" y="0" style="fill: rgb(128, 139, 164); fill-opacity: 1;"/></g><g class="g-gtitle"/><g class="g-xtitle"><text class="xtitle" x="766.4399999999999" y="893.7060546875" text-anchor="middle" style="opacity: 1; font-family: 'Open Sans', verdana, arial, sans-serif; font-size: 20px; fill: rgb(42, 63, 95); fill-opacity: 1; white-space: pre;">Length of flights [nm]</text></g><g class="g-ytitle" transform="translate(6.65625,0)"><text class="ytitle" transform="rotate(-90,13.34375,407.5)" x="13.34375" y="407.5" text-anchor="middle" style="opacity: 1; font-family: 'Open Sans', verdana, arial, sans-serif; font-size: 20px; fill: rgb(42, 63, 95); fill-opacity: 1; white-space: pre;">Number of flights [-]</text></g><g class="g-y2title"><text class="y2title" transform="rotate(-90,1525.53125,407.5)" x="1525.53125" y="407.5" text-anchor="middle" style="opacity: 1; font-family: 'Open Sans', verdana, arial, sans-serif; font-size: 20px; fill: rgb(42, 63, 95); fill-opacity: 1; white-space: pre;">Percentage of flights below flight distance [%]</text></g></g></svg>